<svg width="209" height="123" viewBox="0 0 209 123" fill="none" xmlns="http://www.w3.org/2000/svg">
<path fill-rule="evenodd" clip-rule="evenodd" d="M46.0279 16.0065C49.1521 12.8823 54.2174 12.8823 57.3416 16.0065L60.3538 19.0187C63.478 22.1429 63.478 27.2082 60.3538 30.3324L34.664 56.0221C31.5398 59.1463 31.5398 64.2116 34.664 67.3358L60.3538 93.0256C63.478 96.1497 63.478 101.215 60.3538 104.339L57.3416 107.351C54.2174 110.476 49.1521 110.476 46.0279 107.351L6.01232 67.3358C2.88813 64.2116 2.88813 59.1463 6.01232 56.0221L46.0279 16.0065Z" fill="#FFF0E5"/>
<path fill-rule="evenodd" clip-rule="evenodd" d="M162.919 107.351C159.795 110.476 154.73 110.476 151.606 107.351L148.594 104.339C145.469 101.215 145.469 96.1497 148.594 93.0255L174.283 67.3358C177.407 64.2116 177.407 59.1463 174.283 56.0221L148.594 30.3323C145.469 27.2082 145.469 22.1428 148.594 19.0186L151.606 16.0065C154.73 12.8823 159.795 12.8823 162.919 16.0065L202.935 56.0221C206.059 59.1463 206.059 64.2116 202.935 67.3358L162.919 107.351Z" fill="#FFF0E5"/>
<path fill-rule="evenodd" clip-rule="evenodd" d="M86.738 119.4C82.4702 118.256 79.9376 113.869 81.0811 109.602L108.297 8.03112C109.44 3.76339 113.827 1.23073 118.095 2.37426L122.209 3.47678C126.477 4.62032 129.01 9.00701 127.866 13.2747L100.651 114.845C99.507 119.113 95.1204 121.646 90.8526 120.502L86.738 119.4Z" fill="#FFF0E5"/>
</svg>
